<?xml version="1.0" ?><svg enable-background="new 0 0 149.0484 192.5117" id="pinterest" version="1.1" viewBox="0 0 149.0484 192.5117" xml:space="preserve" xmlns="http://www.w3.org/2000/svg" xmlns:xlink="http://www.w3.org/1999/xlink"><path d="M146.7712,47.0756c-2.9531-9.9768-7.6171-17.9648-14.0196-24.8284  c-6.2188-6.668-13.5704-12.0564-22.7852-16.1016c-8.7268-3.826-20.3243-6.662-33.0744-6.0664  c-4.3632,0.1996-8.3828,0.424-12.2656,0.9844C52.9076,2.7396,43.2868,6.22,34.7516,11.1672  C23.6541,17.6068,14.5328,26.6204,8.3061,37.8956c-3,5.4356-6.2461,15.5664-7.6993,22.8164  c-1.5076,7.4964-0.0856,21.2228,2.9336,28.5352c3.9104,9.4592,6.9844,13.4316,14.7384,19.2072  c1.2148,0.9044,4.6836,2.9728,6.254,2.9376c3.7968-0.0724,3.8868-4.4728,4.7264-7.672c0.6952-2.6368,2.3244-6.2852,0.914-8.7324  c-0.992-1.7168-2.492-2.9648-3.5036-4.4708c-3.2072-4.7656-5.1875-10.8788-5.1875-18.7576c0-10.2268,2.5467-18.4492,6.4023-25.592  c7.3592-13.6348,19.8592-23.5196,37.5664-26.5c9.75-1.6348,20.7304-0.7928,28.656,1.7444  c7.9964,2.5624,14.5664,7.1152,19.2033,12.8356c4.8751,6.008,7.9491,13.76,8.6095,23.3828  c0.3632,5.2288-0.0156,10.5156-0.5316,15.1172c-1.6052,14.2756-5.828,26.2696-12.8044,35.1524  c-4.3596,5.5588-10.8868,11.4552-20.2735,11.7716c-5.3165,0.1836-9.168-1.088-12.4181-3.412  c-3.1404-2.2404-5.4452-5.2324-6.4804-9.5684c-1.1248-4.7288,0.2385-9.2168,1.4452-13.592c2.4416-8.832,5.1253-15.6952,7.168-24.828  c0.9024-4.0588,1.7384-9.584,0.6056-14.1992c-1.0588-4.3436-3.3243-7.4084-6.6288-9.3436c-3.2112-1.8692-8.5-2.6212-13.2656-0.9844  c-7.5,2.5584-12.3712,9.6072-14.4808,17.5428c-1.1912,4.4804-1.6208,9.3516-1.0624,14.58c0.4768,4.5292,1.582,8.42,3.2736,12.756  c0.2344,0.5896-0.4336,2.3084-0.6836,3.3396c-3.7384,15.59-7.2696,30.762-10.9767,46.2424  c-1.9453,8.1308-4.0429,16.2656-4.496,26.0508c-0.4025,8.576-1.1369,17.4024-0.0625,25.0604  c0.1992,1.3964,0.2892,2.3712,1.2928,2.584c1.3284,0.256,0.3948,2.2636,4.7852-2.742c6.6132-7.5196,11.6565-16.8108,15.6252-26.422  c2.4024-5.8048,3.8396-12.2088,5.4844-18.5272c1.6716-6.4064,3.2812-12.9648,4.8829-19.2092  c2.4607,4.2404,5.9295,7.0528,10.0819,9.3244c4.164,2.3064,9.1132,3.916,15.164,4.3184c6.2304,0.4296,12.0468-0.6584,17.1444-2.1232  c5.1408-1.4668,9.668-3.672,13.4104-6.0684c15.4372-9.8828,25.7188-27.2304,29.3396-48.4472c0.9688-5.664,1.59-11.0448,1.59-17.4764  C149.0484,58.1204,148.3141,52.2668,146.7712,47.0756z" fill="#FD5A5A"/></svg>